<?xml version="1.0" encoding="UTF-8" standalone="no"?>
<!DOCTYPE svg PUBLIC "-//W3C//DTD SVG 1.1//EN"
 "http://www.w3.org/Graphics/SVG/1.1/DTD/svg11.dtd">
<!-- Generated by graphviz version 2.26.3 (20100126.1600)
 -->
<!-- Title: G Pages: 1 -->
<svg width="486pt" height="782pt"
 viewBox="0.00 0.00 486.00 782.00" xmlns="http://www.w3.org/2000/svg" xmlns:xlink="http://www.w3.org/1999/xlink">
<g id="graph1" class="graph" transform="scale(1 1) rotate(0) translate(4 778)">
<title>G</title>
<polygon fill="white" stroke="white" points="-4,5 -4,-778 483,-778 483,5 -4,5"/>
<g id="graph2" class="cluster"><title>cluster_global</title>
<polyline fill="none" stroke="gray" points="20,-98 458,-98 "/>
<path fill="none" stroke="gray" d="M458,-98C464,-98 470,-104 470,-110"/>
<polyline fill="none" stroke="gray" points="470,-110 470,-754 "/>
<path fill="none" stroke="gray" d="M470,-754C470,-760 464,-766 458,-766"/>
<polyline fill="none" stroke="gray" points="458,-766 20,-766 "/>
<path fill="none" stroke="gray" d="M20,-766C14,-766 8,-760 8,-754"/>
<polyline fill="none" stroke="gray" points="8,-754 8,-110 "/>
<path fill="none" stroke="gray" d="M8,-110C8,-104 14,-98 20,-98"/>
<text text-anchor="middle" x="239" y="-752.1" font-family="Times Roman,serif" font-size="11.00" fill="gray">global</text>
</g>
<!-- \\TwitterOAuth -->
<g id="node2" class="node"><title>\\TwitterOAuth</title>
<a xlink:href="lib.twitteroauth.html" xlink:title="TwitterOAuth" target="_parent">
<polygon fill="none" stroke="black" points="401,-736 303,-736 303,-700 401,-700 401,-736"/>
<text text-anchor="middle" x="352" y="-715.1" font-family="Courier,monospace" font-size="11.00">TwitterOAuth</text>
</a>
</g>
<!-- \\OAuthException -->
<g id="node3" class="node"><title>\\OAuthException</title>
<a xlink:href="lib.OAuth.html" xlink:title="OAuthException" target="_parent">
<polygon fill="none" stroke="black" points="407,-412 297,-412 297,-376 407,-376 407,-412"/>
<text text-anchor="middle" x="352" y="-391.1" font-family="Courier,monospace" font-size="11.00">OAuthException</text>
</a>
</g>
<!-- \\Exception -->
<g id="node16" class="node"><title>\\Exception</title>
<ellipse fill="none" stroke="black" cx="93" cy="-72" rx="62.9325" ry="18.3848"/>
<text text-anchor="middle" x="93" y="-68.4" font-family="Times Roman,serif" font-size="14.00" fill="gray">\Exception</text>
</g>
<!-- \\OAuthException&#45;&gt;\\Exception -->
<g id="edge3" class="edge"><title>\\OAuthException&#45;&gt;\\Exception</title>
<path fill="none" stroke="black" d="M296.286,-391.759C276.872,-388.273 256.374,-381.129 242,-367 152.512,-279.036 257.818,-183.631 170,-94 166.534,-90.4621 162.541,-87.4829 158.236,-84.9753"/>
<polygon fill="none" stroke="black" points="159.547,-81.7204 149.027,-80.4627 156.467,-88.0062 159.547,-81.7204"/>
</g>
<!-- \\OAuthConsumer -->
<g id="node4" class="node"><title>\\OAuthConsumer</title>
<a xlink:href="lib.OAuth.html" xlink:title="OAuthConsumer" target="_parent">
<polygon fill="none" stroke="black" points="404,-628 300,-628 300,-592 404,-592 404,-628"/>
<text text-anchor="middle" x="352" y="-607.1" font-family="Courier,monospace" font-size="11.00">OAuthConsumer</text>
</a>
</g>
<!-- \\OAuthToken -->
<g id="node5" class="node"><title>\\OAuthToken</title>
<a xlink:href="lib.OAuth.html" xlink:title="OAuthToken" target="_parent">
<polygon fill="none" stroke="black" points="394,-574 310,-574 310,-538 394,-538 394,-574"/>
<text text-anchor="middle" x="352" y="-553.1" font-family="Courier,monospace" font-size="11.00">OAuthToken</text>
</a>
</g>
<!-- \\OAuthSignatureMethod -->
<g id="node6" class="node"><title>\\OAuthSignatureMethod</title>
<a xlink:href="lib.OAuth.html" xlink:title="«abstract»&lt;br/&gt;OAuthSignatureMethod" target="_parent">
<polygon fill="none" stroke="black" points="169,-520 17,-520 17,-484 169,-484 169,-520"/>
<text text-anchor="start" x="59" y="-507.433" font-family="Courier,monospace" font-size="11.00">«abstract»</text>
<text text-anchor="start" x="25" y="-494.233" font-family="Courier,monospace" font-size="11.00">OAuthSignatureMethod</text>
</a>
</g>
<!-- \\OAuthSignatureMethod_HMAC_SHA1 -->
<g id="node7" class="node"><title>\\OAuthSignatureMethod_HMAC_SHA1</title>
<a xlink:href="lib.OAuth.html" xlink:title="OAuthSignatureMethod_HMAC_SHA1" target="_parent">
<polygon fill="none" stroke="black" points="461,-682 243,-682 243,-646 461,-646 461,-682"/>
<text text-anchor="middle" x="352" y="-661.1" font-family="Courier,monospace" font-size="11.00">OAuthSignatureMethod_HMAC_SHA1</text>
</a>
</g>
<!-- \\OAuthSignatureMethod_HMAC_SHA1&#45;&gt;\\OAuthSignatureMethod -->
<g id="edge5" class="edge"><title>\\OAuthSignatureMethod_HMAC_SHA1&#45;&gt;\\OAuthSignatureMethod</title>
<path fill="none" stroke="black" d="M262.05,-645.918C255.105,-643.324 248.338,-640.368 242,-637 189.651,-609.184 141.186,-558.864 114.489,-528.138"/>
<polygon fill="none" stroke="black" points="117.028,-525.721 107.866,-520.4 111.71,-530.273 117.028,-525.721"/>
</g>
<!-- \\OAuthSignatureMethod_PLAINTEXT -->
<g id="node8" class="node"><title>\\OAuthSignatureMethod_PLAINTEXT</title>
<a xlink:href="lib.OAuth.html" xlink:title="OAuthSignatureMethod_PLAINTEXT" target="_parent">
<polygon fill="none" stroke="black" points="461,-520 243,-520 243,-484 461,-484 461,-520"/>
<text text-anchor="middle" x="352" y="-499.1" font-family="Courier,monospace" font-size="11.00">OAuthSignatureMethod_PLAINTEXT</text>
</a>
</g>
<!-- \\OAuthSignatureMethod_PLAINTEXT&#45;&gt;\\OAuthSignatureMethod -->
<g id="edge7" class="edge"><title>\\OAuthSignatureMethod_PLAINTEXT&#45;&gt;\\OAuthSignatureMethod</title>
<path fill="none" stroke="black" d="M242.161,-502C221.284,-502 199.71,-502 179.677,-502"/>
<polygon fill="none" stroke="black" points="179.666,-498.5 169.665,-502 179.665,-505.5 179.666,-498.5"/>
</g>
<!-- \\OAuthSignatureMethod_RSA_SHA1 -->
<g id="node9" class="node"><title>\\OAuthSignatureMethod_RSA_SHA1</title>
<a xlink:href="lib.OAuth.html" xlink:title="«abstract»&lt;br/&gt;OAuthSignatureMethod_RSA_SHA1" target="_parent">
<polygon fill="none" stroke="black" points="458,-466 246,-466 246,-430 458,-430 458,-466"/>
<text text-anchor="start" x="318" y="-453.433" font-family="Courier,monospace" font-size="11.00">«abstract»</text>
<text text-anchor="start" x="254" y="-440.233" font-family="Courier,monospace" font-size="11.00">OAuthSignatureMethod_RSA_SHA1</text>
</a>
</g>
<!-- \\OAuthSignatureMethod_RSA_SHA1&#45;&gt;\\OAuthSignatureMethod -->
<g id="edge9" class="edge"><title>\\OAuthSignatureMethod_RSA_SHA1&#45;&gt;\\OAuthSignatureMethod</title>
<path fill="none" stroke="black" d="M265.397,-466.056C237.761,-471.818 207.188,-478.192 179.556,-483.954"/>
<polygon fill="none" stroke="black" points="178.595,-480.579 169.52,-486.046 180.024,-487.431 178.595,-480.579"/>
</g>
<!-- \\OAuthRequest -->
<g id="node10" class="node"><title>\\OAuthRequest</title>
<a xlink:href="lib.OAuth.html" xlink:title="OAuthRequest" target="_parent">
<polygon fill="none" stroke="black" points="401,-358 303,-358 303,-322 401,-322 401,-358"/>
<text text-anchor="middle" x="352" y="-337.1" font-family="Courier,monospace" font-size="11.00">OAuthRequest</text>
</a>
</g>
<!-- \\OAuthServer -->
<g id="node11" class="node"><title>\\OAuthServer</title>
<a xlink:href="lib.OAuth.html" xlink:title="OAuthServer" target="_parent">
<polygon fill="none" stroke="black" points="397,-304 307,-304 307,-268 397,-268 397,-304"/>
<text text-anchor="middle" x="352" y="-283.1" font-family="Courier,monospace" font-size="11.00">OAuthServer</text>
</a>
</g>
<!-- \\OAuthDataStore -->
<g id="node12" class="node"><title>\\OAuthDataStore</title>
<a xlink:href="lib.OAuth.html" xlink:title="OAuthDataStore" target="_parent">
<polygon fill="none" stroke="black" points="407,-250 297,-250 297,-214 407,-214 407,-250"/>
<text text-anchor="middle" x="352" y="-229.1" font-family="Courier,monospace" font-size="11.00">OAuthDataStore</text>
</a>
</g>
<!-- \\OAuthUtil -->
<g id="node13" class="node"><title>\\OAuthUtil</title>
<a xlink:href="lib.OAuth.html" xlink:title="OAuthUtil" target="_parent">
<polygon fill="none" stroke="black" points="390,-196 314,-196 314,-160 390,-160 390,-196"/>
<text text-anchor="middle" x="352" y="-175.1" font-family="Courier,monospace" font-size="11.00">OAuthUtil</text>
</a>
</g>
<!-- \\Pwt_Widget -->
<g id="node14" class="node"><title>\\Pwt_Widget</title>
<a xlink:href="inc.widget.html" xlink:title="Pwt_Widget" target="_parent">
<polygon fill="none" stroke="black" points="394,-142 310,-142 310,-106 394,-106 394,-142"/>
<text text-anchor="middle" x="352" y="-121.1" font-family="Courier,monospace" font-size="11.00">Pwt_Widget</text>
</a>
</g>
<!-- \\WP_Widget -->
<g id="node21" class="node"><title>\\WP_Widget</title>
<ellipse fill="none" stroke="black" cx="93" cy="-18" rx="72.1249" ry="18.3848"/>
<text text-anchor="middle" x="93" y="-14.4" font-family="Times Roman,serif" font-size="14.00" fill="gray">\WP_Widget</text>
</g>
<!-- \\Pwt_Widget&#45;&gt;\\WP_Widget -->
<g id="edge11" class="edge"><title>\\Pwt_Widget&#45;&gt;\\WP_Widget</title>
<path fill="none" stroke="black" d="M312.58,-105.907C275.945,-89.3281 219.712,-64.4754 170,-45 162.131,-41.9173 153.749,-38.8052 145.519,-35.8447"/>
<polygon fill="none" stroke="black" points="146.562,-32.5011 135.968,-32.4498 144.218,-39.0969 146.562,-32.5011"/>
</g>
</g>
</svg>
